<?xml version="1.0" encoding="UTF-8"?>
<svg id="Layer_1" xmlns="http://www.w3.org/2000/svg" xmlns:serif="http://www.serif.com/" version="1.1" viewBox="0 0 1520 555">
  <!-- Generator: Adobe Illustrator 30.0.0, SVG Export Plug-In . SVG Version: 2.1.1 Build 123)  -->
  <defs>
    <style>
      .st0 {
        fill: #fff;
      }
    </style>
  </defs>
  <path class="st0" d="M369.82,161.23c-2.31-5.9-8.37-9.38-14.62-8.43-9.93,1.5-26.15,4.96-46.52,12.93-20.38,7.98-34.64,16.44-42.95,22.07-5.24,3.55-7.33,10.23-5.02,16.12l134.01,342.47c2.3,5.9,8.36,9.38,14.62,8.44,9.93-1.5,26.15-4.97,46.52-12.94,20.38-7.97,34.64-16.44,42.95-22.08,5.24-3.55,7.33-10.23,5.02-16.12l-134.01-342.47h0Z"/>
  <path class="st0" d="M306.32,36.54c-8.23-5.76-22.36-14.44-42.61-22.72C243.45,5.55,227.29,1.84,217.38.19c-6.24-1.04-12.36,2.35-14.75,8.22L1.01,501.59c-2.4,5.86-.41,12.57,4.77,16.2,8.23,5.76,22.35,14.44,42.61,22.72,20.25,8.28,36.42,11.99,46.32,13.64,6.25,1.04,12.36-2.36,14.75-8.22L311.09,52.74c2.39-5.86.41-12.56-4.77-16.2"/>
  <path class="st0" d="M709.9,184.61l31.14,82.53h-62.28l31.14-82.53ZM658.96,323.45l11.23-29.57h79.42l11.24,29.57c.89,2.35,3.15,3.91,5.66,3.91h21.46c4.27,0,7.2-4.3,5.63-8.27l-63.24-160.99c-.91-2.32-3.15-3.84-5.64-3.84h-29.63c-2.49,0-4.72,1.52-5.64,3.84l-63.24,160.99c-1.56,3.98,1.37,8.27,5.64,8.27h21.45c2.52,0,4.77-1.55,5.66-3.91"/>
  <path class="st0" d="M924.26,321.27v-82.16c0-25.7-13.49-40.23-40.49-40.23-19.72,0-36.08,10.12-44.38,19.98v-10.79c0-3.36-2.72-6.08-6.08-6.08h-15.08c-3.36,0-6.08,2.72-6.08,6.08v113.19c0,3.36,2.72,6.08,6.08,6.08h15.08c3.36,0,6.08-2.73,6.08-6.08v-81.64c6.49-8.3,18.42-16.61,32.18-16.61,15.32,0,25.44,6.23,25.44,25.95v72.3c0,3.36,2.72,6.08,6.08,6.08h15.08c3.36,0,6.08-2.73,6.08-6.08"/>
  <path class="st0" d="M1005.74,223.02c23.36,0,36.07,19.46,36.07,41.53s-12.72,41.79-36.08,41.79-36.08-19.47-36.08-41.79,12.97-41.52,36.08-41.52M1005.74,330.47c39.97,0,64.36-30.11,64.36-65.92s-24.39-65.66-64.36-65.66-64.37,29.58-64.37,65.66,24.4,65.92,64.37,65.92"/>
  <path class="st0" d="M1085.68,225.62h14.68v72.41c0,21.02,10.9,32.45,32.18,32.45,9.54,0,16.49-2.13,21.44-5.11,2.43-1.46,3.55-4.36,2.7-7.07l-2.88-9.24c-1.03-3.31-4.62-5.08-7.88-3.88-1.91.7-4.09,1.16-6.37,1.16-7.78,0-11.94-6.49-11.94-15.05v-65.66h19.36c3.36,0,6.07-2.72,6.07-6.07v-11.47c0-3.35-2.72-6.07-6.07-6.07h-19.36v-28.18c0-3.35-2.72-6.08-6.08-6.08h-15.1c-3.35,0-6.07,2.73-6.07,6.08v28.18h-14.68c-3.36,0-6.07,2.72-6.07,6.07v11.47c0,3.35,2.72,6.07,6.07,6.07"/>
  <path class="st0" d="M1247.42,198.89c-19.72,0-35.81,10.12-44.12,19.98v-58.54c0-3.36-2.72-6.08-6.08-6.08h-15.1c-3.36,0-6.08,2.72-6.08,6.08v160.95c0,3.35,2.72,6.08,6.08,6.08h15.1c3.36,0,6.08-2.73,6.08-6.08v-81.65c6.23-8.3,18.16-16.61,32.18-16.61,15.31,0,25.18,5.71,25.18,25.44v72.82c0,3.35,2.72,6.08,6.07,6.08h15.09c3.35,0,6.07-2.73,6.07-6.08v-82.68c0-25.69-13.49-39.71-40.49-39.71"/>
  <path class="st0" d="M1334.43,254.17c1.04-15.05,11.94-32.96,35.04-32.96,24.65,0,34.78,18.17,35.56,32.96h-70.6ZM1369.73,198.89c-37.12,0-63.59,29.32-63.59,65.66,0,39.71,27.77,65.92,65.66,65.92,17.56,0,34.09-5.14,46.48-14.7,2.55-1.97,3.07-5.61,1.24-8.25l-5.51-7.92c-1.99-2.85-5.88-3.35-8.69-1.31-8.86,6.42-20.53,9.86-30.93,9.86-23.62,0-37.63-15.83-39.72-34.52h90.5c3.34,0,6.05-2.71,6.05-6.05v-.7c0-39.45-23.88-68-61.5-68"/>
  <path class="st0" d="M1512.36,199.43c-13.49,2.15-25.76,10.49-34,20.74v-12.15c0-3.32-2.7-6.02-6.02-6.02h-15.22c-3.32,0-6.02,2.7-6.02,6.02v113.32c0,3.33,2.69,6.02,6.02,6.02h15.22c3.32,0,6.02-2.69,6.02-6.02v-79.37c5.45-9.08,20.76-16.87,32.44-16.87.77,0,1.48.01,2.18.04,3.37.13,6.13-2.64,6.13-6.01v-13.73c0-3.61-3.18-6.55-6.74-5.98"/>
  <path class="st0" d="M711.19,447.77h-41.79v-55.02h41.79c17.13,0,29.59,10.64,29.59,27.25s-12.46,27.77-29.59,27.77M771.92,420.26c0-32.18-22.58-54.24-56.83-54.24h-70c-3.35,0-6.05,2.71-6.05,6.05v161c0,3.34,2.7,6.05,6.05,6.05h18.26c3.34,0,6.05-2.71,6.05-6.05v-58.57h30.37l36.4,61.65c1.09,1.85,3.07,2.98,5.21,2.98h20.92c4.75,0,7.65-5.23,5.12-9.26l-36.77-58.74c21.03-3.38,41.27-20.24,41.27-50.87"/>
  <path class="st0" d="M808.77,465.93c1.04-15.05,11.94-32.96,35.04-32.96,24.65,0,34.78,18.17,35.55,32.96h-70.59ZM844.06,410.66c-37.11,0-63.59,29.33-63.59,65.66,0,39.7,27.77,65.92,65.67,65.92,17.57,0,34.12-5.15,46.51-14.72,2.53-1.95,3.06-5.58,1.23-8.2l-5.56-7.99c-1.97-2.83-5.84-3.33-8.63-1.3-8.86,6.44-20.54,9.89-30.95,9.89-23.62,0-37.63-15.83-39.71-34.52h90.54c3.32,0,6.01-2.69,6.01-6.01v-.74c0-39.45-23.88-68-61.51-68"/>
  <path class="st0" d="M1003.66,510.57c-6.49,8.57-18.17,12.98-29.85,12.98-15.32,0-27-8.83-27-22.58s11.68-22.58,27-22.58c11.68,0,23.35,4.41,29.85,12.98v19.2ZM978.48,410.66c-18.21,0-34.91,5.17-48.73,16.7-2.32,1.93-2.92,5.25-1.36,7.84l5.04,8.35c1.92,3.2,6.19,3.81,9.09,1.47,9.41-7.61,20.07-11.26,31.82-11.26,17.13,0,29.33,8.83,29.33,23.36v18.69c-9.34-10.64-23.62-16.09-40.75-16.09-20.5,0-43.35,11.94-43.35,41.01,0,27.51,23.1,41.53,43.35,41.53,16.61,0,31.4-5.97,40.75-16.87v7.72c0,3.33,2.7,6.04,6.04,6.04h15.17c3.34,0,6.04-2.71,6.04-6.04v-77.27c0-33.48-24.4-45.16-52.43-45.16"/>
  <path class="st0" d="M1146.38,501.23c-5.97,9.34-19.46,16.87-32.18,16.87-21.8,0-35.55-17.39-35.55-41.78s13.76-41.53,35.55-41.53c12.72,0,26.21,7.52,32.18,16.87v49.57ZM1167.66,366.01h-15.3c-3.3,0-5.97,2.67-5.97,5.97v59.17c-9.86-13.5-24.39-20.5-40.22-20.5-32.19,0-55.54,25.17-55.54,65.67s23.62,65.92,55.54,65.92c16.35,0,30.62-7.78,40.22-20.24v11.16c0,3.3,2.68,5.97,5.97,5.97h15.3c3.3,0,5.97-2.67,5.97-5.97v-161.17c0-3.3-2.68-5.97-5.97-5.97"/>
</svg>